<svg width="0" height="0" class="hidden">
  <symbol aria-hidden="true" data-prefix="fal" data-icon="home" xmlns="http://www.w3.org/2000/svg" viewBox="0 0 576 512" id="home">
    <path fill="currentColor" d="M541 229.16l-61-49.83v-77.4a6 6 0 0 0-6-6h-20a6 6 0 0 0-6 6v51.33L308.19 39.14a32.16 32.16 0 0 0-40.38 0L35 229.16a8 8 0 0 0-1.16 11.24l10.1 12.41a8 8 0 0 0 11.2 1.19L96 220.62v243a16 16 0 0 0 16 16h128a16 16 0 0 0 16-16v-128l64 .3V464a16 16 0 0 0 16 16l128-.33a16 16 0 0 0 16-16V220.62L520.86 254a8 8 0 0 0 11.25-1.16l10.1-12.41a8 8 0 0 0-1.21-11.27zm-93.11 218.59h.1l-96 .3V319.88a16.05 16.05 0 0 0-15.95-16l-96-.27a16 16 0 0 0-16.05 16v128.14H128V194.51L288 63.94l160 130.57z"></path>
  </symbol>
  <symbol aria-hidden="true" data-prefix="fal" data-icon="info-circle" xmlns="http://www.w3.org/2000/svg" viewBox="0 0 512 512" id="info">
    <path fill="currentColor" d="M256 40c118.621 0 216 96.075 216 216 0 119.291-96.61 216-216 216-119.244 0-216-96.562-216-216 0-119.203 96.602-216 216-216m0-32C119.043 8 8 119.083 8 256c0 136.997 111.043 248 248 248s248-111.003 248-248C504 119.083 392.957 8 256 8zm-36 344h12V232h-12c-6.627 0-12-5.373-12-12v-8c0-6.627 5.373-12 12-12h48c6.627 0 12 5.373 12 12v140h12c6.627 0 12 5.373 12 12v8c0 6.627-5.373 12-12 12h-72c-6.627 0-12-5.373-12-12v-8c0-6.627 5.373-12 12-12zm36-240c-17.673 0-32 14.327-32 32s14.327 32 32 32 32-14.327 32-32-14.327-32-32-32z"></path>
  </symbol>
  <symbol aria-hidden="true" data-prefix="fal" data-icon="map-marker-alt" xmlns="http://www.w3.org/2000/svg" viewBox="0 0 14 22" id="location">
    <path d="M7.00924 0C5.15055 0 3.36798 0.724328 2.05368 2.01364C0.739385 3.30295 0.00102043 5.05164 0.00102043 6.875V6.9025C-0.00329362 7.08854 0.00607495 7.27465 0.0290533 7.45938C0.0355711 7.59083 0.0507877 7.72173 0.0746068 7.85125V7.97156C0.0991355 8.10906 0.12016 8.24656 0.148193 8.38062C1.22045 13.6469 7.00924 22 7.00924 22C7.00924 22 12.798 13.6469 13.8528 8.38062C13.8808 8.24656 13.9018 8.10906 13.9264 7.97156V7.85125C13.9264 7.72063 13.9614 7.59 13.9719 7.45938C13.9719 7.26688 13.9999 7.08125 13.9999 6.9025C14.0036 5.9988 13.8257 5.10324 13.4762 4.26707C13.1268 3.43091 12.6127 2.67053 11.9634 2.02943C11.3141 1.38834 10.5424 0.879113 9.69228 0.530883C8.84219 0.182653 7.93046 0.00225204 7.00924 0ZM7.00924 10.1372C6.35769 10.1399 5.71994 9.95316 5.17647 9.60058C4.63301 9.24801 4.20821 8.74539 3.95569 8.15618C3.70317 7.56696 3.63426 6.91757 3.75764 6.28997C3.88103 5.66236 4.19119 5.08469 4.64897 4.62986C5.10674 4.17503 5.69162 3.86344 6.32976 3.73442C6.96791 3.60541 7.63071 3.66474 8.2345 3.90494C8.8383 4.14515 9.35602 4.55544 9.72231 5.08404C10.0886 5.61265 10.287 6.23585 10.2926 6.875C10.2977 7.30131 10.2166 7.72439 10.0539 8.11973C9.8912 8.51508 9.65021 8.87486 9.34486 9.17824C9.03951 9.48162 8.67586 9.72258 8.27496 9.88719C7.87405 10.0518 7.44385 10.1368 7.00924 10.1372Z" fill="currentColor"/>
  </symbol>
  <symbol aria-hidden="true" data-prefix="fal" data-icon="search-plus" xmlns="http://www.w3.org/2000/svg" viewBox="0 0 512 512" id="magnify">
    <path fill="currentColor" d="M319.8 204v8c0 6.6-5.4 12-12 12h-84v84c0 6.6-5.4 12-12 12h-8c-6.6 0-12-5.4-12-12v-84h-84c-6.6 0-12-5.4-12-12v-8c0-6.6 5.4-12 12-12h84v-84c0-6.6 5.4-12 12-12h8c6.6 0 12 5.4 12 12v84h84c6.6 0 12 5.4 12 12zm188.5 293L497 508.3c-4.7 4.7-12.3 4.7-17 0l-129-129c-2.3-2.3-3.5-5.3-3.5-8.5v-8.5C310.6 395.7 261.7 416 208 416 93.8 416 1.5 324.9 0 210.7-1.5 93.7 93.7-1.5 210.7 0 324.9 1.5 416 93.8 416 208c0 53.7-20.3 102.6-53.7 139.5h8.5c3.2 0 6.2 1.3 8.5 3.5l129 129c4.7 4.7 4.7 12.3 0 17zM384 208c0-97.3-78.7-176-176-176S32 110.7 32 208s78.7 176 176 176 176-78.7 176-176z"></path>
  </symbol>
  <symbol aria-hidden="true" data-prefix="fal" data-icon="search" xmlns="http://www.w3.org/2000/svg" viewBox="0 0 32 32" id="search">
    <path fill="currentColor" d="M 19 3 C 13.488281 3 9 7.488281 9 13 C 9 15.394531 9.839844 17.589844 11.25 19.3125 L 3.28125 27.28125 L 4.71875 28.71875 L 12.6875 20.75 C 14.410156 22.160156 16.605469 23 19 23 C 24.511719 23 29 18.511719 29 13 C 29 7.488281 24.511719 3 19 3 Z M 19 5 C 23.429688 5 27 8.570313 27 13 C 27 17.429688 23.429688 21 19 21 C 14.570313 21 11 17.429688 11 13 C 11 8.570313 14.570313 5 19 5 Z"></path>
  </symbol>
  <symbol aria-hidden="true" data-prefix="fal" data-icon="envelope" xmlns="http://www.w3.org/2000/svg" viewBox="0 0 512 512" id="mail">
    <path fill="currentColor" d="M464 64H48C21.5 64 0 85.5 0 112v288c0 26.5 21.5 48 48 48h416c26.5 0 48-21.5 48-48V112c0-26.5-21.5-48-48-48zM48 96h416c8.8 0 16 7.2 16 16v41.4c-21.9 18.5-53.2 44-150.6 121.3-16.9 13.4-50.2 45.7-73.4 45.3-23.2.4-56.6-31.9-73.4-45.3C85.2 197.4 53.9 171.9 32 153.4V112c0-8.8 7.2-16 16-16zm416 320H48c-8.8 0-16-7.2-16-16V195c22.8 18.7 58.8 47.6 130.7 104.7 20.5 16.4 56.7 52.5 93.3 52.3 36.4.3 72.3-35.5 93.3-52.3 71.9-57.1 107.9-86 130.7-104.7v205c0 8.8-7.2 16-16 16z"></path>
  </symbol>
  <symbol viewBox="0 0 64 64" fill="none" xmlns="http://www.w3.org/2000/svg" id="media">
    <path d="M37 54h-2v-9.8a1 1 0 0 0-2 0V54H7V34h8.32a1 1 0 0 0 0-2H6a1 1 0 0 0-1 1v21H3a1 1 0 0 0-1 1v2a5 5 0 0 0 5 5h26a5 5 0 0 0 5-5v-2a1 1 0 0 0-1-1zm-1 3a3 3 0 0 1-3 3h-2v-1a1 1 0 0 0-2 0v1H11v-1a1 1 0 0 0-2 0v1H7a3 3 0 0 1-3-3v-1h32v1zM59 2H47a3 3 0 0 0-3 3v2a1 1 0 0 0 2 0V5a1 1 0 0 1 1-1h12a1 1 0 0 1 1 1v12a1 1 0 0 1-1 1H47a1 1 0 0 1-1-1v-6a1 1 0 0 0-2 0v6a3 3 0 0 0 3 3h12a3 3 0 0 0 3-3V5a3 3 0 0 0-3-3zM49 42a4 4 0 1 0 8 0 4 4 0 0 0-8 0zm6 0a2 2 0 1 1-4 0 2 2 0 0 1 4 0z"
      fill="currentColor"></path>
    <path d="M59 33H47a3 3 0 0 0-3 3v12a3 3 0 0 0 3 3h12a3 3 0 0 0 3-3v-2a1 1 0 0 0-2 0v2a1 1 0 0 1-1 1H47a1 1 0 0 1-1-1V36a1 1 0 0 1 1-1h12a1 1 0 0 1 1 1v6a1 1 0 0 0 2 0v-6a3 3 0 0 0-3-3zM24.47 13.85a1 1 0 0 0 .98.04l6-3a1 1 0 0 0 0-1.78l-6-3A1 1 0 0 0 24 7v6a1 1 0 0 0 .47.85zM26 8.62L28.76 10 26 11.38V8.62z"
      fill="currentColor"></path>
    <path d="M27 19a9 9 0 1 0 0-17.999A9 9 0 0 0 27 19zm0-16a7 7 0 1 1 0 14 7 7 0 0 1 0-14zm10 20a.999.999 0 0 0 .8-.4l3-4a1 1 0 1 0-1.6-1.2l-3 4A1 1 0 0 0 37 23zm2.2 3.6a1 1 0 0 0 1.4.2l4-3a1 1 0 1 0-1.2-1.6l-4 3a1 1 0 0 0-.2 1.4zm9.8 2.2a1.001 1.001 0 0 0-1.2-.8l-5 1a1.004 1.004 0 1 0 .2 2h.2l5-1a1.001 1.001 0 0 0 .8-1.2zM3 29h12a1 1 0 0 0 1-1V12a1 1 0 0 0-1-1H3a1 1 0 0 0-1 1v16a1 1 0 0 0 1 1zm1-16h10v14H4V13z"
      fill="currentColor"></path>
    <path d="M11 15H9a1 1 0 0 0 0 2h2a1 1 0 0 0 0-2zm0 4H7a1 1 0 0 0 0 2h4a1 1 0 0 0 0-2zm0 4H7a1 1 0 0 0 0 2h4a1 1 0 0 0 0-2zm25.12 5.7a1.003 1.003 0 1 0-1.74 1l4.41 7.63-16 6h-.15l-2.6 1.5-1.73 1a2 2 0 0 1-2.73-.73l-2-3.46a2 2 0 0 1 .75-2.64l3.46-2 2.5 4.33a1 1 0 0 0 .87.5 1 1 0 0 0 .87-1.5l-2.58-4.46L32 25.52l.41.71a1.004 1.004 0 0 0 1.74-1l-1-1.73a1 1 0 0 0-.69-.48 1.001 1.001 0 0 0-.82.21l-14 11.54-4.26 2.46a4 4 0 0 0-1.84 4.53l-1 .57a3 3 0 0 0 1.5 5.6 3.06 3.06 0 0 0 1.5-.4l1-.57a3.88 3.88 0 0 0 2.8 1.18 3.94 3.94 0 0 0 2-.54l.87-.5 2 3.47a3 3 0 0 0 4.971.328 3 3 0 0 0 .219-3.328l-1.82-3.17 15-5.63a1 1 0 0 0 .52-1.43l-4.98-8.64zM12.5 45.79a1.001 1.001 0 0 1-.76.1 1 1 0 0 1-.61-.46.998.998 0 0 1 .074-1.112 1 1 0 0 1 .296-.258l.87-.5 1 1.73-.87.5zm13.16 2.8a1.001 1.001 0 0 1 .1.76 1 1 0 0 1-.47.6 1 1 0 0 1-1.36-.36l-2-3.47 1.66-.95h.08l1.99 3.42z"
      fill="currentColor"></path>
  </symbol>
  <symbol aria-hidden="true" data-prefix="fal" data-icon="phone" xmlns="http://www.w3.org/2000/svg" viewBox="0 0 21 22" id="phone">
    <path d="M0.861281 18.0877L1.12477 18.5784C2.14361 20.5239 4.37452 21.5229 6.50003 20.9621C9.80248 20.0682 13.0347 18.2454 15.5291 15.704C18.0762 13.1977 19.9031 9.99029 20.7989 6.69526C21.3786 4.57452 20.3598 2.34862 18.4099 1.33206C18.1991 1.2269 18.0059 1.12174 17.8127 1.01658C17.2154 0.7011 16.4952 0.893895 16.1263 1.45475C15.4764 2.43625 14.5629 3.85592 13.4563 5.53849C13.1225 6.04677 13.1928 6.73031 13.6319 7.16848L14.6156 8.14998C15.1075 8.64073 15.248 9.39438 14.9494 10.0429C13.913 12.3038 12.1037 14.1091 9.83762 15.1432C9.20523 15.4411 8.44988 15.3009 7.94046 14.8102L7.04459 13.9163C6.60543 13.4781 5.93792 13.408 5.41093 13.741L1.28287 16.4226C0.738318 16.7732 0.545089 17.4918 0.861281 18.0877Z"/>
  </symbol>
  <symbol aria-hidden="true" data-prefix="fal" data-icon="hand-pointer" xmlns="http://www.w3.org/2000/svg" viewBox="0 0 448 512" id="pointer">
    <path fill="currentColor" d="M360.543 188.156c-17.46-28.491-54.291-37.063-82.138-19.693-15.965-20.831-42.672-28.278-66.119-20.385V60.25c0-33.222-26.788-60.25-59.714-60.25S92.857 27.028 92.857 60.25v181.902c-20.338-13.673-47.578-13.89-68.389 1.472-26.556 19.605-32.368 57.08-13.132 83.926l114.271 159.5C136.803 502.673 154.893 512 174 512h185.714c27.714 0 51.832-19.294 58.145-46.528l28.571-123.25a60.769 60.769 0 0 0 1.57-13.723v-87c0-45.365-48.011-74.312-87.457-53.343zM82.097 275.588l28.258 39.439a7.999 7.999 0 1 0 14.503-4.659V60.25c0-37.35 55.428-37.41 55.428 0V241.5a8 8 0 0 0 8 8h7.144a8 8 0 0 0 8-8v-36.25c0-37.35 55.429-37.41 55.429 0v36.25a8 8 0 0 0 8 8H274a8 8 0 0 0 8-8v-21.75c0-37.351 55.429-37.408 55.429 0v21.75a8 8 0 0 0 8 8h7.143a8 8 0 0 0 8-8c0-37.35 55.429-37.41 55.429 0v87c0 2.186-.25 4.371-.742 6.496l-28.573 123.251C383.717 471.055 372.626 480 359.715 480H174c-8.813 0-17.181-4.332-22.381-11.588l-114.283-159.5c-22.213-31.004 23.801-62.575 44.761-33.324zM180.285 401v-87a8 8 0 0 1 8-8h7.144a8 8 0 0 1 8 8v87a8 8 0 0 1-8 8h-7.144a8 8 0 0 1-8-8zm78.572 0v-87a8 8 0 0 1 8-8H274a8 8 0 0 1 8 8v87a8 8 0 0 1-8 8h-7.143a8 8 0 0 1-8-8zm78.572 0v-87a8 8 0 0 1 8-8h7.143a8 8 0 0 1 8 8v87a8 8 0 0 1-8 8h-7.143a8 8 0 0 1-8-8z"></path>
  </symbol>
  <symbol aria-hidden="true" data-prefix="fal" data-icon="question-circle" xmlns="http://www.w3.org/2000/svg" viewBox="0 0 512 512" id="question">
    <path fill="currentColor" d="M256 340c-15.464 0-28 12.536-28 28s12.536 28 28 28 28-12.536 28-28-12.536-28-28-28zm7.67-24h-16c-6.627 0-12-5.373-12-12v-.381c0-70.343 77.44-63.619 77.44-107.408 0-20.016-17.761-40.211-57.44-40.211-29.144 0-44.265 9.649-59.211 28.692-3.908 4.98-11.054 5.995-16.248 2.376l-13.134-9.15c-5.625-3.919-6.86-11.771-2.645-17.177C185.658 133.514 210.842 116 255.67 116c52.32 0 97.44 29.751 97.44 80.211 0 67.414-77.44 63.849-77.44 107.408V304c0 6.627-5.373 12-12 12zM256 40c118.621 0 216 96.075 216 216 0 119.291-96.61 216-216 216-119.244 0-216-96.562-216-216 0-119.203 96.602-216 216-216m0-32C119.043 8 8 119.083 8 256c0 136.997 111.043 248 248 248s248-111.003 248-248C504 119.083 392.957 8 256 8z"></path>
  </symbol>
  <symbol aria-hidden="true" data-prefix="fas" data-icon="quote-left" xmlns="http://www.w3.org/2000/svg" viewBox="0 0 40 38" id="quote">
    <path d="M0.400001 38H14.2V20.8H8V19.2C8 11.8 10.6 8.79999 14.4 7.2V0.599998C5.8 1.99999 0.400001 8 0.400001 19.8V38ZM26 38H40V20.8H33.6V19.2C33.6 11.8 36.2 8.79999 40 7.2V0.599998C31.4 1.99999 26 8 26 19.8V38Z" fill="currentColor"/>  
  </symbol>
  <symbol viewBox="0 0 512 512" xmlns="http://www.w3.org/2000/svg" id="repeat">
    <path d="M.003 372.765a10 10 0 0 0 5.249 8.556l123.11 66.42a10 10 0 0 0 14.742-8.45l4.96-141.42a10 10 0 0 0-14.993-9.011l-25.275 14.591A139.865 139.865 0 0 1 104 271c0-43.742 20.181-84.241 55.369-111.112a10.003 10.003 0 0 0-.769-16.428l-53.36-33.35a10.003 10.003 0 0 0-12.171 1.214C49.267 152.746 24 209.839 24 271c0 25.339 4.254 50.097 12.657 73.717L4.826 363.963a9.997 9.997 0 0 0-4.823 8.802zm54.121-15.237a9.999 9.999 0 0 0 4.111-12.27C48.79 321.633 44 296.649 44 271c0-52.743 20.293-102.074 57.318-139.756l34.979 21.862C102.894 183.466 84 225.701 84 271c0 17.32 2.768 34.372 8.227 50.684 2.003 5.984 9.002 8.653 14.482 5.487l20.734-11.969-3.763 107.289-93.536-50.464zM305.848 1.254a9.999 9.999 0 0 0-10.147.267l-120 75a10 10 0 0 0 0 16.96l120 75a9.999 9.999 0 0 0 15.299-8.48v-29.177c54.147 16.224 94.325 64.604 99.44 121.552.643 7.158 8.378 11.272 14.655 7.935l56.12-29.84a10 10 0 0 0 5.092-10.884C467.995 132.369 398.113 64.658 311 48.633V10a10 10 0 0 0-5.152-8.746zM465.06 216.408l-36.695 19.511c-11.797-64.411-62.352-114.855-125.366-127.708-6.185-1.261-11.999 3.465-11.999 9.798v23.948L199.868 85 291 28.043V57.13a9.999 9.999 0 0 0 8.584 9.899c80.313 11.487 145.931 71.087 165.476 149.379z"></path>
    <circle cx="388" cy="480" r="10"></circle>
    <path d="M453.157 415.719c-9.435 11.966-20.562 22.938-33.071 32.612-4.369 3.378-5.172 9.659-1.793 14.028s9.658 5.173 14.028 1.793c11.443-8.849 21.852-18.701 31.029-29.361l33.666 19.358a10 10 0 0 0 14.978-9.031l-5.12-141.42a10.001 10.001 0 0 0-14.688-8.468l-124.95 66.42a10 10 0 0 0-.306 17.49l25.116 14.5C366.115 417.53 328.888 432 292 432c-26.48 0-52.274-7.462-74.594-21.581a10 10 0 0 0-15.339 8.1l-2.33 66.4a10 10 0 0 0 6.073 9.55C233.103 506.102 262.102 512 292 512c18.804 0 37.686-2.367 56.122-7.034 5.354-1.355 8.596-6.794 7.24-12.148-1.355-5.354-6.794-8.595-12.148-7.24C326.381 489.839 309.15 492 292 492c-24.892 0-49.089-4.492-72.031-13.362l1.51-43.039C243.333 446.368 267.409 452 292 452c46.79 0 94.189-20.666 123.701-53.934 4.192-4.727 3.005-12.13-2.481-15.297l-20.663-11.929 94.908-50.451 3.89 107.433-25.359-14.582a10.004 10.004 0 0 0-12.839 2.479z"></path>
  </symbol>
  <symbol aria-hidden="true" data-prefix="far" data-icon="check" xmlns="http://www.w3.org/2000/svg" viewBox="0 0 22 21" id="tick">
    <g id="Group 6069">
      <path id="Vector" d="M19.8464 10.4232C19.8464 15.6274 15.6274 19.8464 10.4232 19.8464C5.219 19.8464 1 15.6274 1 10.4232C1 5.219 5.219 1 10.4232 1C11.3968 1 12.3357 1.15068 13.2166 1.41726" stroke="#A3D8F5" stroke-width="2" stroke-miterlimit="10"/>
      <path id="Vector_2" d="M6.80664 9.09012L10.4461 12.7296L21.0863 2.08936" stroke="#19388A" stroke-width="2" stroke-miterlimit="10"/>
    </g>
  </symbol>
  <symbol aria-hidden="true" data-prefix="fal" data-icon="check-circle" xmlns="http://www.w3.org/2000/svg" viewBox="0 0 512 512" id="tick-circle">
    <path fill="currentColor" d="M256 8C119.033 8 8 119.033 8 256s111.033 248 248 248 248-111.033 248-248S392.967 8 256 8zm0 464c-118.664 0-216-96.055-216-216 0-118.663 96.055-216 216-216 118.664 0 216 96.055 216 216 0 118.663-96.055 216-216 216zm141.63-274.961L217.15 376.071c-4.705 4.667-12.303 4.637-16.97-.068l-85.878-86.572c-4.667-4.705-4.637-12.303.068-16.97l8.52-8.451c4.705-4.667 12.303-4.637 16.97.068l68.976 69.533 163.441-162.13c4.705-4.667 12.303-4.637 16.97.068l8.451 8.52c4.668 4.705 4.637 12.303-.068 16.97z"></path>
  </symbol>
  <symbol aria-hidden="true" data-prefix="fab" data-icon="twitter" xmlns="http://www.w3.org/2000/svg" viewBox="0 0 1668.56 1221.19" id="twitter">
    <g id="layer1" transform="translate(52.390088,-25.058597)">
      <path id="path1009" d="M283.94,167.31l386.39,516.64L281.5,1104h87.51l340.42-367.76L984.48,1104h297.8L874.15,558.3l361.92-390.99
        h-87.51l-313.51,338.7l-253.31-338.7H283.94z M412.63,231.77h136.81l604.13,807.76h-136.81L412.63,231.77z"/>
    </g>
  </symbol>
  <symbol aria-hidden="true" data-prefix="fal" data-icon="user" xmlns="http://www.w3.org/2000/svg" viewBox="0 0 16 20" id="user">
<g clip-path="url(#clip0_1_43)">
<path d="M3.82685 5.05415C3.84483 5.16842 3.86726 5.28113 3.89372 5.39223C3.96406 5.68774 4.06285 5.97176 4.18846 6.24014C4.28611 6.44876 4.40027 6.64751 4.52772 6.83603C4.61202 6.9607 4.70258 7.08044 4.79878 7.19514C4.8451 7.2504 4.89274 7.30439 4.94167 7.35715C5.26747 7.70852 5.64957 8.00361 6.07341 8.22742C6.28681 8.3401 6.51009 8.43575 6.74261 8.51021C6.80881 8.5314 6.87571 8.55096 6.94327 8.56886C7.21349 8.64043 7.49417 8.6852 7.78245 8.70024C7.85453 8.704 7.92708 8.70589 8.00005 8.70589C8.219 8.70589 8.43405 8.68877 8.64403 8.65575C8.92399 8.61171 9.19492 8.53941 9.45398 8.44176C9.58351 8.39294 9.71007 8.33779 9.83332 8.27664C11.2506 7.57364 12.2286 6.08087 12.2286 4.35297C12.2286 3.97735 12.1824 3.61281 12.0955 3.26509C12.0607 3.12601 12.0195 2.98961 11.972 2.85627C11.9409 2.76884 11.9062 2.68328 11.87 2.59856C11.8232 2.4895 11.7732 2.38222 11.7182 2.27808C11.5599 1.97793 11.3678 1.69951 11.1479 1.44725C10.8256 1.07748 10.4431 0.764408 10.0156 0.525372C9.8359 0.42485 9.64828 0.33738 9.45398 0.264133C9.32446 0.215311 9.19195 0.172826 9.05684 0.137035C8.71906 0.0475643 8.36496 0 8.00005 0C7.92708 0 7.85453 0.00189314 7.78245 0.005658C7.56623 0.0169383 7.35429 0.0449568 7.14784 0.0884276C7.01021 0.117432 6.87502 0.153302 6.74261 0.195701C6.41159 0.301688 6.098 0.448418 5.8074 0.630188C5.51679 0.811958 5.24913 1.02879 5.01001 1.27494C4.57956 1.71805 4.2415 2.25622 4.02807 2.85625C3.98064 2.98959 3.93937 3.12599 3.9046 3.26508C3.81769 3.6128 3.77148 3.97732 3.77148 4.35294C3.77148 4.59174 3.79092 4.82581 3.82685 5.05415Z" fill="white"/>
<path d="M15.881 12.4209L10.862 9.59741H5.13794L0.118998 12.4209C0.0321529 12.4698 -0.0142745 12.5705 0.00390783 12.6706L1.29911 19.8079C1.31931 19.9192 1.41372 20 1.52377 20H14.4761C14.5862 20 14.6806 19.9192 14.7007 19.8079L15.9961 12.6706C16.0143 12.5705 15.9678 12.4698 15.881 12.4209Z" fill="white"/>
</g>
<defs>
<clipPath id="clip0_1_43">
<rect width="16" height="20" fill="white"/>
</clipPath>
</defs>
  </symbol>
  <symbol aria-hidden="true" data-prefix="fab" data-icon="youtube" xmlns="http://www.w3.org/2000/svg" viewBox="0 0 576 512" id="youtube">
    <path fill="currentColor" d="M549.655 124.083c-6.281-23.65-24.787-42.276-48.284-48.597C458.781 64 288 64 288 64S117.22 64 74.629 75.486c-23.497 6.322-42.003 24.947-48.284 48.597-11.412 42.867-11.412 132.305-11.412 132.305s0 89.438 11.412 132.305c6.281 23.65 24.787 41.5 48.284 47.821C117.22 448 288 448 288 448s170.78 0 213.371-11.486c23.497-6.321 42.003-24.171 48.284-47.821 11.412-42.867 11.412-132.305 11.412-132.305s0-89.438-11.412-132.305zm-317.51 213.508V175.185l142.739 81.205-142.739 81.201z"></path>
  </symbol>
  <symbol aria-hidden="true" data-prefix="fab" data-icon="youtube-square" xmlns="http://www.w3.org/2000/svg" shape-rendering="geometricPrecision" text-rendering="geometricPrecision" image-rendering="optimizeQuality" fill-rule="evenodd" clip-rule="evenodd" viewBox="0 0 3333 3333" id="youtube-square">
    <path fill="currentColor" d="M3021 0H313C141 0 0 141 0 312v2708c0 172 141 312 313 312h2708c172 0 313-141 313-312V312c0-172-141-312-313-312zm-441 1294s-18-129-74-185c-71-74-151-75-187-79-261-19-652-19-652-19h-1s-392 0-652 19c-36 4-116 5-187 79-56 56-74 185-74 185s-19 151-19 302v141c0 151 19 302 19 302s18 129 74 185c71 74 164 72 206 80 149 14 634 19 634 19s392-1 653-19c36-4 116-5 187-79 56-56 74-185 74-185s19-151 19-302v-141c0-151-19-302-19-302zm-1107 615v-524l504 263-504 261z"></path>
  </symbol>
  <symbol aria-hidden="true" data-prefix="fal" data-icon="shopping-basket" xmlns="http://www.w3.org/2000/svg" viewBox="0 0 576 512" id="basket">
    <path fill="currentColor" d="M564 192h-76.875L347.893 37.297c-5.91-6.568-16.027-7.101-22.596-1.189s-7.101 16.028-1.189 22.596L444.075 192h-312.15L251.893 58.703c5.912-6.567 5.379-16.685-1.189-22.596-6.569-5.912-16.686-5.38-22.596 1.189L88.875 192H12c-6.627 0-12 5.373-12 12v8c0 6.627 5.373 12 12 12h16.444L58.25 438.603C61.546 462.334 81.836 480 105.794 480h364.412c23.958 0 44.248-17.666 47.544-41.397L547.556 224H564c6.627 0 12-5.373 12-12v-8c0-6.627-5.373-12-12-12zm-77.946 242.201c-1.093 7.867-7.906 13.799-15.848 13.799H105.794c-7.942 0-14.755-5.932-15.848-13.799L60.752 224h454.497l-29.195 210.201zM304 280v112c0 8.837-7.163 16-16 16-8.836 0-16-7.163-16-16V280c0-8.837 7.164-16 16-16 8.837 0 16 7.163 16 16zm112 0v112c0 8.837-7.163 16-16 16s-16-7.163-16-16V280c0-8.837 7.163-16 16-16s16 7.163 16 16zm-224 0v112c0 8.837-7.164 16-16 16s-16-7.163-16-16V280c0-8.837 7.164-16 16-16s16 7.163 16 16z"></path>
  </symbol>
  <symbol aria-hidden="true" data-prefix="fab" data-icon="facebook-f" xmlns="http://www.w3.org/2000/svg" viewBox="0 0 320 512" id="facebook">
    <path fill="currentColor" d="M279.14 288l14.22-92.66h-88.91v-60.13c0-25.35 12.42-50.06 52.24-50.06h40.42V6.26S260.43 0 225.36 0c-73.22 0-121.08 44.38-121.08 124.72v70.62H22.89V288h81.39v224h100.17V288z"></path>
  </symbol>
  <symbol aria-hidden="true" data-prefix="fab" data-icon="pinterest" xmlns="http://www.w3.org/2000/svg" viewBox="0 0 32 32" id="pinterest">
    <path d="M 16.09375 4 C 11.01675 4 6 7.3833281 6 12.861328 C 6 16.344328 7.9584844 18.324219 9.1464844 18.324219 C 9.6364844 18.324219 9.9199219 16.958266 9.9199219 16.572266 C 9.9199219 16.112266 8.7460938 15.131797 8.7460938 13.216797 C 8.7460938 9.2387969 11.774359 6.4199219 15.693359 6.4199219 C 19.063359 6.4199219 21.556641 8.3335625 21.556641 11.851562 C 21.556641 14.478563 20.501891 19.40625 17.087891 19.40625 C 15.855891 19.40625 14.802734 18.516234 14.802734 17.240234 C 14.802734 15.370234 16 13.558906 16 11.628906 C 16 8.3529063 11.462891 8.94725 11.462891 12.90625 C 11.462891 13.73725 11.5665 14.657063 11.9375 15.414062 C 11.2555 18.353063 10 23.037406 10 26.066406 C 10 27.001406 10.133656 27.921422 10.222656 28.857422 C 10.390656 29.045422 10.307453 29.025641 10.564453 28.931641 C 13.058453 25.517641 12.827078 24.544172 13.955078 20.076172 C 14.564078 21.234172 16.137766 21.857422 17.384766 21.857422 C 22.639766 21.857422 25 16.736141 25 12.119141 C 25 7.2061406 20.75475 4 16.09375 4 z"/>
  </symbol>
  <symbol viewBox="0 0 17 12" fill="none" xmlns="http://www.w3.org/2000/svg" id="arrow">
    <path d="M16.5303 6.53033C16.8232 6.23744 16.8232 5.76256 16.5303 5.46967L11.7574 0.696698C11.4645 0.403805 10.9896 0.403805 10.6967 0.696698C10.4038 0.989592 10.4038 1.46447 10.6967 1.75736L14.9393 6L10.6967 10.2426C10.4038 10.5355 10.4038 11.0104 10.6967 11.3033C10.9896 11.5962 11.4645 11.5962 11.7574 11.3033L16.5303 6.53033ZM6.55671e-08 6.75L16 6.75L16 5.25L-6.55671e-08 5.25L6.55671e-08 6.75Z" fill="currentColor"/>
  </symbol>
  <symbol viewBox="0 0 20 19" fill="none" xmlns="http://www.w3.org/2000/svg" id="star">
    <path d="M10.333 0l2.238 6.91h7.24l-5.858 4.27 2.238 6.91-5.858-4.27-5.857 4.27 2.237-6.91L.856 6.91h7.24L10.333 0z" fill="currentColor"></path>
  </symbol>
  <symbol xmlns="http://www.w3.org/2000/svg" viewBox="0 0 272 92" id="google">
    <path fill="#EA4335" d="M115.75 47.18c0 12.77-9.99 22.18-22.25 22.18s-22.25-9.41-22.25-22.18C71.25 34.32 81.24 25 93.5 25s22.25 9.32 22.25 22.18zm-9.74 0c0-7.98-5.79-13.44-12.51-13.44S80.99 39.2 80.99 47.18c0 7.9 5.79 13.44 12.51 13.44s12.51-5.55 12.51-13.44z"></path>
    <path fill="#FBBC05" d="M163.75 47.18c0 12.77-9.99 22.18-22.25 22.18s-22.25-9.41-22.25-22.18c0-12.85 9.99-22.18 22.25-22.18s22.25 9.32 22.25 22.18zm-9.74 0c0-7.98-5.79-13.44-12.51-13.44s-12.51 5.46-12.51 13.44c0 7.9 5.79 13.44 12.51 13.44s12.51-5.55 12.51-13.44z"></path>
    <path fill="#4285F4" d="M209.75 26.34v39.82c0 16.38-9.66 23.07-21.08 23.07-10.75 0-17.22-7.19-19.66-13.07l8.48-3.53c1.51 3.61 5.21 7.87 11.17 7.87 7.31 0 11.84-4.51 11.84-13v-3.19h-.34c-2.18 2.69-6.38 5.04-11.68 5.04-11.09 0-21.25-9.66-21.25-22.09 0-12.52 10.16-22.26 21.25-22.26 5.29 0 9.49 2.35 11.68 4.96h.34v-3.61h9.25zm-8.56 20.92c0-7.81-5.21-13.52-11.84-13.52-6.72 0-12.35 5.71-12.35 13.52 0 7.73 5.63 13.36 12.35 13.36 6.63 0 11.84-5.63 11.84-13.36z"></path>
    <path fill="#34A853" d="M225 3v65h-9.5V3h9.5z"></path>
    <path fill="#EA4335" d="M262.02 54.48l7.56 5.04c-2.44 3.61-8.32 9.83-18.48 9.83-12.6 0-22.01-9.74-22.01-22.18 0-13.19 9.49-22.18 20.92-22.18 11.51 0 17.14 9.16 18.98 14.11l1.01 2.52-29.65 12.28c2.27 4.45 5.8 6.72 10.75 6.72 4.96 0 8.4-2.44 10.92-6.14zm-23.27-7.98l19.82-8.23c-1.09-2.77-4.37-4.7-8.23-4.7-4.95 0-11.84 4.37-11.59 12.93z"></path>
    <path fill="#4285F4" d="M35.29 41.41V32H67c.31 1.64.47 3.58.47 5.68 0 7.06-1.93 15.79-8.15 22.01-6.05 6.3-13.78 9.66-24.02 9.66C16.32 69.35.36 53.89.36 34.91.36 15.93 16.32.47 35.3.47c10.5 0 17.98 4.12 23.6 9.49l-6.64 6.64c-4.03-3.78-9.49-6.72-16.97-6.72-13.86 0-24.7 11.17-24.7 25.03 0 13.86 10.84 25.03 24.7 25.03 8.99 0 14.11-3.61 17.39-6.89 2.66-2.66 4.41-6.46 5.1-11.65l-22.49.01z"></path>
  </symbol>  
  <symbol aria-hidden="true" data-prefix="fal" data-icon="fax" xmlns="http://www.w3.org/2000/svg" viewBox="0 0 512 512" id="fax">
    <path fill="currentColor" d="M392 304h16a8 8 0 0 0 8-8v-16a8 8 0 0 0-8-8h-16a8 8 0 0 0-8 8v16a8 8 0 0 0 8 8zm0 128h16a8 8 0 0 0 8-8v-16a8 8 0 0 0-8-8h-16a8 8 0 0 0-8 8v16a8 8 0 0 0 8 8zM80 128H48a48 48 0 0 0-48 48v288a48 48 0 0 0 48 48h32a48 48 0 0 0 48-48V176a48 48 0 0 0-48-48zm16 336a16 16 0 0 1-16 16H48a16 16 0 0 1-16-16V176a16 16 0 0 1 16-16h32a16 16 0 0 1 16 16zm296-96h16a8 8 0 0 0 8-8v-16a8 8 0 0 0-8-8h-16a8 8 0 0 0-8 8v16a8 8 0 0 0 8 8zm-128 64h16a8 8 0 0 0 8-8v-16a8 8 0 0 0-8-8h-16a8 8 0 0 0-8 8v16a8 8 0 0 0 8 8zm0-64h16a8 8 0 0 0 8-8v-16a8 8 0 0 0-8-8h-16a8 8 0 0 0-8 8v16a8 8 0 0 0 8 8zm216-205.06v-53.69a32 32 0 0 0-9.38-22.63L393.38 9.38A32 32 0 0 0 370.75 0H208a48 48 0 0 0-48 48v416a48 48 0 0 0 48 48h256a48 48 0 0 0 48-48V208a47.87 47.87 0 0 0-32-45.06zM384 45.25L434.75 96H384zM192 48a16 16 0 0 1 16-16h144v64a32 32 0 0 0 32 32h64v64H192zm288 416a16 16 0 0 1-16 16H208a16 16 0 0 1-16-16V224h288zm-152-32h16a8 8 0 0 0 8-8v-16a8 8 0 0 0-8-8h-16a8 8 0 0 0-8 8v16a8 8 0 0 0 8 8zm0-64h16a8 8 0 0 0 8-8v-16a8 8 0 0 0-8-8h-16a8 8 0 0 0-8 8v16a8 8 0 0 0 8 8zm0-64h16a8 8 0 0 0 8-8v-16a8 8 0 0 0-8-8h-16a8 8 0 0 0-8 8v16a8 8 0 0 0 8 8zm-64 0h16a8 8 0 0 0 8-8v-16a8 8 0 0 0-8-8h-16a8 8 0 0 0-8 8v16a8 8 0 0 0 8 8z"></path>
  </symbol>
  <symbol aria-hidden="true" data-prefix="fal" data-icon="credit-card" xmlns="http://www.w3.org/2000/svg" viewBox="0 0 576 512" id="credit-card">
    <path fill="currentColor" d="M528 32H48C21.5 32 0 53.5 0 80v352c0 26.5 21.5 48 48 48h480c26.5 0 48-21.5 48-48V80c0-26.5-21.5-48-48-48zM48 64h480c8.8 0 16 7.2 16 16v48H32V80c0-8.8 7.2-16 16-16zm480 384H48c-8.8 0-16-7.2-16-16V224h512v208c0 8.8-7.2 16-16 16zm-336-84v8c0 6.6-5.4 12-12 12h-72c-6.6 0-12-5.4-12-12v-8c0-6.6 5.4-12 12-12h72c6.6 0 12 5.4 12 12zm192 0v8c0 6.6-5.4 12-12 12H236c-6.6 0-12-5.4-12-12v-8c0-6.6 5.4-12 12-12h136c6.6 0 12 5.4 12 12z"></path>
  </symbol>
  <symbol aria-hidden="true" data-prefix="fal" data-icon="file-pdf" xmlns="http://www.w3.org/2000/svg" viewBox="0 0 384 512" id="pdf">
    <path fill="currentColor" d="M369.9 97.9L286 14C277 5 264.8-.1 252.1-.1H48C21.5 0 0 21.5 0 48v416c0 26.5 21.5 48 48 48h288c26.5 0 48-21.5 48-48V131.9c0-12.7-5.1-25-14.1-34zm-22.6 22.7c2.1 2.1 3.5 4.6 4.2 7.4H256V32.5c2.8.7 5.3 2.1 7.4 4.2l83.9 83.9zM336 480H48c-8.8 0-16-7.2-16-16V48c0-8.8 7.2-16 16-16h176v104c0 13.3 10.7 24 24 24h104v304c0 8.8-7.2 16-16 16zm-22-171.2c-13.5-13.3-55-9.2-73.7-6.7-21.2-12.8-35.2-30.4-45.1-56.6 4.3-18 12-47.2 6.4-64.9-4.4-28.1-39.7-24.7-44.6-6.8-5 18.3-.3 44.4 8.4 77.8-11.9 28.4-29.7 66.9-42.1 88.6-20.8 10.7-54.1 29.3-58.8 52.4-3.5 16.8 22.9 39.4 53.1 6.4 9.1-9.9 19.3-24.8 31.3-45.5 26.7-8.8 56.1-19.8 82-24 21.9 12 47.6 19.9 64.6 19.9 27.7.1 28.9-30.2 18.5-40.6zm-229.2 89c5.9-15.9 28.6-34.4 35.5-40.8-22.1 35.3-35.5 41.5-35.5 40.8zM180 175.5c8.7 0 7.8 37.5 2.1 47.6-5.2-16.3-5-47.6-2.1-47.6zm-28.4 159.3c11.3-19.8 21-43.2 28.8-63.7 9.7 17.7 22.1 31.7 35.1 41.5-24.3 4.7-45.4 15.1-63.9 22.2zm153.4-5.9s-5.8 7-43.5-9.1c41-3 47.7 6.4 43.5 9.1z"></path>
  </symbol>
  <symbol aria-hidden="true" data-prefix="fal" data-icon="poll-h" xmlns="http://www.w3.org/2000/svg" viewBox="0 0 448 512" id="list">
    <path fill="currentColor" d="M448 432V80c0-26.5-21.5-48-48-48H48C21.5 32 0 53.5 0 80v352c0 26.5 21.5 48 48 48h352c26.5 0 48-21.5 48-48zM48 448c-8.82 0-16-7.18-16-16V80c0-8.82 7.18-16 16-16h352c8.82 0 16 7.18 16 16v352c0 8.82-7.18 16-16 16H48zm208-280v-16c0-4.42-3.58-8-8-8H104c-4.42 0-8 3.58-8 8v16c0 4.42 3.58 8 8 8h144c4.42 0 8-3.58 8-8zm96 96v-16c0-4.42-3.58-8-8-8H104c-4.42 0-8 3.58-8 8v16c0 4.42 3.58 8 8 8h240c4.42 0 8-3.58 8-8zm-160 96v-16c0-4.42-3.58-8-8-8h-80c-4.42 0-8 3.58-8 8v16c0 4.42 3.58 8 8 8h80c4.42 0 8-3.58 8-8z"></path>
  </symbol>
  <symbol aria-hidden="true" data-prefix="fal" data-icon="recycle" xmlns="http://www.w3.org/2000/svg" viewBox="0 0 24 21" id="recycle">
    <path d="M3.98071 17L7.9608 10.5373H6.02347C6.02104 10.4654 6.01829 10.3929 6.01829 10.3201C6.01829 7.04604 8.49566 4.38199 11.5406 4.38199C13.2009 4.38199 14.6897 5.17629 15.7026 6.42789L18 2.70138C16.2934 1.02652 14.0276 0 11.5406 0C6.24861 0 1.94285 4.62956 1.94285 10.3201C1.94285 10.3929 1.94672 10.4651 1.94834 10.5373H0L3.98071 17Z" fill="white"/>
    <path d="M19.9708 5L15.9423 11.2848H17.9582C17.7968 14.3201 15.3576 16.7387 12.3796 16.7387C10.7671 16.7387 9.31283 16.0287 8.29193 14.8968L6 18.5226C7.70803 20.0633 9.93945 21 12.3796 21C17.6318 21 21.9194 16.6701 22.0838 11.2848H24L19.9708 5Z" fill="white"/>
  </symbol>
  <symbol aria-hidden="true" data-prefix="fal" data-icon="handshake" xmlns="http://www.w3.org/2000/svg" viewBox="0 0 640 512" id="handshake">
    <path fill="currentColor" d="M16 319.8c8.8 0 16-7.2 16-16s-7.2-16-16-16-16 7.2-16 16c0 8.9 7.2 16 16 16zM632 128l-113.5.2-51.2-49.9c-9.1-9.1-21.1-14.1-33.9-14.1h-101c-10.4 0-20.1 3.9-28.3 10-8.4-6.5-18.7-10.3-29.3-10.3h-69.5c-12.7 0-24.9 5.1-33.9 14.1l-50 50H8c-4.4 0-8 3.6-8 8v16c0 4.4 3.6 8 8 8h56v191.9H8c-4.4 0-8 3.6-8 8v16c0 4.4 3.6 8 8 8h56c17.6 0 31.8-14.2 31.9-31.7h33.2l81.5 78c29.8 24.1 71.8 23.4 101-.2l7.2 6.2c9.6 7.8 21.3 11.9 33.5 11.9 16 0 31.1-7 41.4-19.6l21.9-26.9c16.4 8.9 42.9 9 60-12l9.5-11.7c6.2-7.6 9.6-16.6 10.5-25.7h48.6c.1 17.5 14.4 31.7 31.9 31.7h56c4.4 0 8-3.6 8-8v-16c0-4.4-3.6-8-8-8h-56V160.2l56-.2c4.4 0 8-3.6 8-8v-16c-.1-4.5-3.7-8-8.1-8zM460.2 357.6l-9.5 11.7c-5.4 6.6-15.4 8.1-22.5 2.3l-17.8-14.4-41.5 51c-7.5 9.3-21 10.2-29.4 3.4l-30.6-26.1-10.4 12.8c-16.7 20.5-47 23.7-66.6 7.9L142 320.1H96V159.9h38.6l59.3-59.3c3-3 7.1-4.7 11.3-4.7h69.5c.9 2.2.3.7 1.1 2.9l-59 54.2c-28.2 25.9-29.6 69.2-4.2 96.9 14.3 15.6 58.6 39.3 96.9 4.2l22.8-20.9 125.6 101.9c6.8 5.6 7.8 15.7 2.3 22.5zm83.8-37.5h-57.2c-2.5-3.5-5.3-6.9-8.8-9.8l-121.9-99 28.4-26.1c6.5-6 7-16.1 1-22.6s-16.1-6.9-22.6-1l-75.1 68.8c-14.4 13.1-38.6 12-51.7-2.2-13.6-14.8-12.7-38 2.2-51.7l83.1-76.2c3-2.7 6.8-4.2 10.8-4.2h101c4.3 0 8.3 1.7 11.4 4.8l60.7 59.1H544v160.1zm80-32.2c-8.8 0-16 7.2-16 16s7.2 16 16 16 16-7.2 16-16c0-8.9-7.2-16-16-16z"></path>
  </symbol>
  <symbol aria-hidden="true" data-prefix="fal" data-icon="clipboard-list-check" xmlns="http://www.w3.org/2000/svg" viewBox="0 0 384 512" id="clipboard-tick">
    <path fill="currentColor" d="M336 64h-88.6c.4-2.6.6-5.3.6-8 0-30.9-25.1-56-56-56s-56 25.1-56 56c0 2.7.2 5.4.6 8H48C21.5 64 0 85.5 0 112v352c0 26.5 21.5 48 48 48h288c26.5 0 48-21.5 48-48V112c0-26.5-21.5-48-48-48zM192 32c13.3 0 24 10.7 24 24s-10.7 24-24 24-24-10.7-24-24 10.7-24 24-24zm160 432c0 8.8-7.2 16-16 16H48c-8.8 0-16-7.2-16-16V112c0-8.8 7.2-16 16-16h48v20c0 6.6 5.4 12 12 12h168c6.6 0 12-5.4 12-12V96h48c8.8 0 16 7.2 16 16v352zM112 328c-13.3 0-24 10.7-24 24s10.7 24 24 24 24-10.7 24-24-10.7-24-24-24zm168 8H168c-4.4 0-8 3.6-8 8v16c0 4.4 3.6 8 8 8h112c4.4 0 8-3.6 8-8v-16c0-4.4-3.6-8-8-8zm-153.8-65.6l64.2-63.6c2.1-2.1 2.1-5.5 0-7.6l-12.6-12.7c-2.1-2.1-5.5-2.1-7.6 0l-47.6 47.2-20.6-20.9c-2.1-2.1-5.5-2.1-7.6 0l-12.7 12.6c-2.1 2.1-2.1 5.5 0 7.6l37.1 37.4c1.9 2.1 5.3 2.1 7.4 0zM280 240h-77.6l-32.3 32H280c4.4 0 8-3.6 8-8v-16c0-4.4-3.6-8-8-8z"></path>
  </symbol>
  <symbol aria-hidden="true" data-prefix="fab" data-icon="facebook-square" xmlns="http://www.w3.org/2000/svg" viewBox="0 0 448 512" id="facebook-square">
    <path fill="currentColor" d="M400 32H48A48 48 0 0 0 0 80v352a48 48 0 0 0 48 48h137.25V327.69h-63V256h63v-54.64c0-62.15 37-96.48 93.67-96.48 27.14 0 55.52 4.84 55.52 4.84v61h-31.27c-30.81 0-40.42 19.12-40.42 38.73V256h68.78l-11 71.69h-57.78V480H400a48 48 0 0 0 48-48V80a48 48 0 0 0-48-48z"></path>
  </symbol>
  <symbol aria-hidden="true" data-prefix="fab" data-icon="instagram-square" xmlns="http://www.w3.org/2000/svg" viewBox="0 0 448 512" id="instagram-square">
    <path fill="currentColor" d="M224,202.66A53.34,53.34,0,1,0,277.36,256,53.38,53.38,0,0,0,224,202.66Zm124.71-41a54,54,0,0,0-30.41-30.41c-21-8.29-71-6.43-94.3-6.43s-73.25-1.93-94.31,6.43a54,54,0,0,0-30.41,30.41c-8.28,21-6.43,71.05-6.43,94.33S91,329.26,99.32,350.33a54,54,0,0,0,30.41,30.41c21,8.29,71,6.43,94.31,6.43s73.24,1.93,94.3-6.43a54,54,0,0,0,30.41-30.41c8.35-21,6.43-71.05,6.43-94.33S357.1,182.74,348.75,161.67ZM224,338a82,82,0,1,1,82-82A81.9,81.9,0,0,1,224,338Zm85.38-148.3a19.14,19.14,0,1,1,19.13-19.14A19.1,19.1,0,0,1,309.42,189.74ZM400,32H48A48,48,0,0,0,0,80V432a48,48,0,0,0,48,48H400a48,48,0,0,0,48-48V80A48,48,0,0,0,400,32ZM382.88,322c-1.29,25.63-7.14,48.34-25.85,67s-41.4,24.63-67,25.85c-26.41,1.49-105.59,1.49-132,0-25.63-1.29-48.26-7.15-67-25.85s-24.63-41.42-25.85-67c-1.49-26.42-1.49-105.61,0-132,1.29-25.63,7.07-48.34,25.85-67s41.47-24.56,67-25.78c26.41-1.49,105.59-1.49,132,0,25.63,1.29,48.33,7.15,67,25.85s24.63,41.42,25.85,67.05C384.37,216.44,384.37,295.56,382.88,322Z"></path>
  </symbol>
  <symbol aria-hidden="true" data-prefix="fab" data-icon="instagram" xmlns="http://www.w3.org/2000/svg" viewBox="0 0 20 21" id="instagram">
    <g clip-path="url(#clip0_29_2098)">
      <path d="M10.1641 2.02795H14.1614C14.7764 2.02795 15.3913 2.23294 16.0063 2.43793C16.8262 2.8479 17.6462 3.46287 17.8512 4.28282C18.0562 4.89778 18.2612 5.51275 18.2612 6.12771V14.3272C18.2612 14.9422 18.0562 15.5572 17.8512 16.1721C17.4412 16.9921 16.8262 17.812 16.0063 18.017C15.3913 18.222 14.7764 18.427 14.1614 18.427H6.16686C5.5519 18.427 4.93694 18.222 4.32197 18.017C3.50202 17.607 2.68207 16.9921 2.47708 16.1721C2.27209 15.5572 2.0671 14.9422 2.0671 14.3272V10.2275V6.12771C2.0671 5.51275 2.27209 4.89778 2.47708 4.28282C2.88706 3.46287 3.50202 2.64292 4.32197 2.43793C4.93694 2.23294 5.5519 2.02795 6.16686 2.02795H10.1641ZM10.1641 0.388048H6.16686C5.34691 0.388048 4.52696 0.593036 3.70701 0.798024C2.37459 1.41299 1.34965 2.43793 0.734683 3.56536C0.529695 4.38531 0.324707 5.20526 0.324707 6.02522V14.2247C0.324707 15.0447 0.529695 15.8646 0.734683 16.6846C1.34965 18.1195 2.37459 19.1444 3.70701 19.7594C4.52696 19.9644 5.34691 20.1694 6.16686 20.1694H14.1614C14.9813 20.1694 15.8013 19.9644 16.6212 19.7594C18.0562 19.1444 19.0811 18.1195 19.5936 16.6846C19.7986 15.8646 20.0035 15.0447 20.0035 14.2247V10.125V6.02522C20.0035 5.20526 19.7986 4.38531 19.5936 3.56536C18.9786 2.13045 17.9537 1.10551 16.6212 0.490542C15.8013 0.285554 14.9813 0.0805664 14.1614 0.0805664C13.1365 0.388048 12.7265 0.388048 10.1641 0.388048Z" fill="currentColor"/>
      <path d="M10.1652 4.99976C7.39784 4.99976 4.93799 7.45961 4.93799 10.3294C4.93799 13.1993 7.19286 15.6591 10.1652 15.6591C13.1375 15.6591 15.3924 13.4043 15.3924 10.3294C15.3924 7.45961 12.9325 4.99976 10.1652 4.99976ZM10.1652 13.6092C8.32029 13.6092 6.78288 12.1743 6.78288 10.1245C6.78288 8.27956 8.1153 6.63966 10.1652 6.63966C12.0101 6.63966 13.5475 8.07457 13.5475 10.1245C13.3425 12.1743 12.0101 13.6092 10.1652 13.6092Z" fill="currentColor"/>
      <path d="M15.3925 6.0248C16.0718 6.0248 16.6225 5.47414 16.6225 4.79487C16.6225 4.1156 16.0718 3.56494 15.3925 3.56494C14.7133 3.56494 14.1626 4.1156 14.1626 4.79487C14.1626 5.47414 14.7133 6.0248 15.3925 6.0248Z" fill="currentColor"/>
    </g>
    <defs>
    <clipPath id="clip0_29_2098">
    <rect x="0.325195" y="0.490479" width="19.6788" height="19.6788" fill="white"/>
    </clipPath>
    </defs>
  </symbol>
  <symbol aria-hidden="true" data-prefix="fab" data-icon="twitter-square" xmlns="http://www.w3.org/2000/svg" viewBox="0 0 448 512" id="twitter-square">
    <path fill="currentColor" d="M400 32H48C21.5 32 0 53.5 0 80v352c0 26.5 21.5 48 48 48h352c26.5 0 48-21.5 48-48V80c0-26.5-21.5-48-48-48zm-48.9 158.8c.2 2.8.2 5.7.2 8.5 0 86.7-66 186.6-186.6 186.6-37.2 0-71.7-10.8-100.7-29.4 5.3.6 10.4.8 15.8.8 30.7 0 58.9-10.4 81.4-28-28.8-.6-53-19.5-61.3-45.5 10.1 1.5 19.2 1.5 29.6-1.2-30-6.1-52.5-32.5-52.5-64.4v-.8c8.7 4.9 18.9 7.9 29.6 8.3a65.447 65.447 0 0 1-29.2-54.6c0-12.2 3.2-23.4 8.9-33.1 32.3 39.8 80.8 65.8 135.2 68.6-9.3-44.5 24-80.6 64-80.6 18.9 0 35.9 7.9 47.9 20.7 14.8-2.8 29-8.3 41.6-15.8-4.9 15.2-15.2 28-28.8 36.1 13.2-1.4 26-5.1 37.8-10.2-8.9 13.1-20.1 24.7-32.9 34z"></path>
  </symbol>
 <symbol aria-hidden="true" data-prefix="fab" data-icon="linkedin-in" xmlns="http://www.w3.org/2000/svg" viewBox="0 0 17 17" id="linkedin-in">
    <path d="M3.89338 2.13215C3.90776 2.36684 3.87212 2.6019 3.78882 2.82178C3.70553 3.04166 3.57648 3.24134 3.41022 3.4076C3.24396 3.57386 3.04428 3.70291 2.8244 3.78621C2.60452 3.8695 2.36945 3.90514 2.13476 3.89076C1.90878 3.89982 1.68327 3.86345 1.47159 3.7838C1.25991 3.70416 1.06635 3.58286 0.902381 3.42709C0.738408 3.27131 0.60735 3.08423 0.51696 2.87691C0.426571 2.66959 0.378689 2.44624 0.376146 2.22009C0.36763 1.98268 0.406647 1.74597 0.490907 1.52385C0.575166 1.30173 0.702968 1.0987 0.866803 0.926668C1.03064 0.75464 1.2272 0.617087 1.44494 0.522098C1.66269 0.427109 1.89722 0.376597 2.13476 0.373528C2.36755 0.366747 2.59927 0.407598 2.8157 0.493577C3.03213 0.579556 3.22871 0.70885 3.39339 0.873524C3.55806 1.0382 3.68735 1.23478 3.77333 1.45121C3.85931 1.66764 3.90016 1.89936 3.89338 2.13215Z" fill="currentColor"/>
    <path d="M3.89224 4.77002H0.375V16.201H3.89224V4.77002Z" fill="currentColor"/>
    <path d="M12.3346 4.94486C11.6735 4.9264 11.0188 5.0785 10.4336 5.38652C9.84835 5.69454 9.35231 6.1481 8.99326 6.70348H8.90531L8.72942 5.20865H5.56396C5.56396 6.17591 5.65181 7.319 5.65181 8.63795V16.2H9.16905V9.95693C9.15005 9.66099 9.17978 9.36393 9.25704 9.07762C9.52078 8.4621 9.96042 7.67069 10.9277 7.67069C12.1587 7.67069 12.6863 8.72589 12.6863 10.1328V16.2H16.2035V9.69314C16.2035 6.43965 14.5329 4.94486 12.3346 4.94486Z" fill="currentColor"/>
  </symbol>
  <symbol aria-hidden="true" data-prefix="fab" data-icon="linkedin" xmlns="http://www.w3.org/2000/svg" viewBox="0 0 448 512" id="linkedin-square">
    <path fill="currentColor" d="M416 32H31.9C14.3 32 0 46.5 0 64.3v383.4C0 465.5 14.3 480 31.9 480H416c17.6 0 32-14.5 32-32.3V64.3c0-17.8-14.4-32.3-32-32.3zM135.4 416H69V202.2h66.5V416zm-33.2-243c-21.3 0-38.5-17.3-38.5-38.5S80.9 96 102.2 96c21.2 0 38.5 17.3 38.5 38.5 0 21.3-17.2 38.5-38.5 38.5zm282.1 243h-66.4V312c0-24.8-.5-56.7-34.5-56.7-34.6 0-39.9 27-39.9 54.9V416h-66.4V202.2h63.7v29.2h.9c8.9-16.8 30.6-34.5 62.9-34.5 67.2 0 79.7 44.3 79.7 101.9V416z"></path>
  </symbol>
  <symbol aria-hidden="true" data-prefix="fas" data-icon="building" xmlns="http://www.w3.org/2000/svg" viewBox="0 0 448 512" id="office">
    <path fill="currentColor" d="M436 480h-20V24c0-13.255-10.745-24-24-24H56C42.745 0 32 10.745 32 24v456H12c-6.627 0-12 5.373-12 12v20h448v-20c0-6.627-5.373-12-12-12zM128 76c0-6.627 5.373-12 12-12h40c6.627 0 12 5.373 12 12v40c0 6.627-5.373 12-12 12h-40c-6.627 0-12-5.373-12-12V76zm0 96c0-6.627 5.373-12 12-12h40c6.627 0 12 5.373 12 12v40c0 6.627-5.373 12-12 12h-40c-6.627 0-12-5.373-12-12v-40zm52 148h-40c-6.627 0-12-5.373-12-12v-40c0-6.627 5.373-12 12-12h40c6.627 0 12 5.373 12 12v40c0 6.627-5.373 12-12 12zm76 160h-64v-84c0-6.627 5.373-12 12-12h40c6.627 0 12 5.373 12 12v84zm64-172c0 6.627-5.373 12-12 12h-40c-6.627 0-12-5.373-12-12v-40c0-6.627 5.373-12 12-12h40c6.627 0 12 5.373 12 12v40zm0-96c0 6.627-5.373 12-12 12h-40c-6.627 0-12-5.373-12-12v-40c0-6.627 5.373-12 12-12h40c6.627 0 12 5.373 12 12v40zm0-96c0 6.627-5.373 12-12 12h-40c-6.627 0-12-5.373-12-12V76c0-6.627 5.373-12 12-12h40c6.627 0 12 5.373 12 12v40z"></path>
  </symbol>
  <symbol aria-hidden="true" data-prefix="fas" data-icon="phone-alt" xmlns="http://www.w3.org/2000/svg" viewBox="0 0 512 512" id="phone-alt">
    <path fill="currentColor" d="M497.39 361.8l-112-48a24 24 0 0 0-28 6.9l-49.6 60.6A370.66 370.66 0 0 1 130.6 204.11l60.6-49.6a23.94 23.94 0 0 0 6.9-28l-48-112A24.16 24.16 0 0 0 122.6.61l-104 24A24 24 0 0 0 0 48c0 256.5 207.9 464 464 464a24 24 0 0 0 23.4-18.6l24-104a24.29 24.29 0 0 0-14.01-27.6z"></path>
  </symbol>
  <symbol aria-hidden="true" data-prefix="fas" data-icon="envelope" xmlns="http://www.w3.org/2000/svg" viewBox="0 0 512 512" id="mail-alt">
    <path fill="currentColor" d="M502.3 190.8c3.9-3.1 9.7-.2 9.7 4.7V400c0 26.5-21.5 48-48 48H48c-26.5 0-48-21.5-48-48V195.6c0-5 5.7-7.8 9.7-4.7 22.4 17.4 52.1 39.5 154.1 113.6 21.1 15.4 56.7 47.8 92.2 47.6 35.7.3 72-32.8 92.3-47.6 102-74.1 131.6-96.3 154-113.7zM256 320c23.2.4 56.6-29.2 73.4-41.4 132.7-96.3 142.8-104.7 173.4-128.7 5.8-4.5 9.2-11.5 9.2-18.9v-19c0-26.5-21.5-48-48-48H48C21.5 64 0 85.5 0 112v19c0 7.4 3.4 14.3 9.2 18.9 30.6 23.9 40.7 32.4 173.4 128.7 16.8 12.2 50.2 41.8 73.4 41.4z"></path>
  </symbol>
  <symbol viewBox="0 0 19 27" fill="none" xmlns="http://www.w3.org/2000/svg" id="rosette">
    <path d="M8.62032 17.6059L7.38968 24.9999L5.6658 22.1667L3.11572 24.2892L4.45735 16.2239" fill="white"/>
    <path d="M8.62032 17.6059L7.38968 24.9999L5.6658 22.1667L3.11572 24.2892L4.45735 16.2239" stroke="white" stroke-width="1.2" stroke-miterlimit="10"/>
    <path d="M10.0193 17.6059L11.2499 24.9999L12.9738 22.1667L15.5239 24.2892L14.1823 16.2239" fill="white"/>
    <path d="M10.0193 17.6059L11.2499 24.9999L12.9738 22.1667L15.5239 24.2892L14.1823 16.2239" stroke="white" stroke-width="1.2" stroke-miterlimit="10"/>
    <path d="M8.30884 19.4765L8.77494 16.676" stroke="white" stroke-width="1.2" stroke-miterlimit="10"/>
    <path d="M4.11084 18.3063L4.61672 15.2651" stroke="white" stroke-width="1.2" stroke-miterlimit="10"/>
    <path d="M10.1941 18.6591L9.88232 16.7859" stroke="white" stroke-width="1.2" stroke-miterlimit="10"/>
    <path d="M14.3343 17.1404L14.033 15.3289" stroke="white" stroke-width="1.2" stroke-miterlimit="10"/>
    <path d="M16.051 4.10011C16.5408 4.77066 16.3652 5.81114 16.6263 6.61809C16.8781 7.39728 17.6406 8.13026 17.6406 8.99501C17.6406 9.85747 16.8782 10.5904 16.6263 11.3696C16.3652 12.1766 16.5408 13.2171 16.051 13.8876C15.5565 14.5674 14.5121 14.7177 13.8352 15.2125C13.1628 15.7027 12.6984 16.653 11.892 16.9143C11.1133 17.1686 10.1822 16.6808 9.32032 16.6808C8.45618 16.6808 7.52733 17.1686 6.74867 16.9143C5.93997 16.653 5.47787 15.7027 4.8055 15.2125C4.12619 14.7177 3.08181 14.5674 2.58736 13.8876C2.09983 13.2171 2.27543 12.1766 2.01203 11.3696C1.76017 10.5904 1 9.85745 1 8.99501C1 8.13026 1.76017 7.3973 2.01203 6.61809C2.27543 5.81112 2.09983 4.77064 2.58736 4.10011C3.08181 3.42033 4.12619 3.27003 4.8055 2.77522C5.47787 2.28504 5.93997 1.33471 6.74867 1.07344C7.52733 0.819109 8.45618 1.30698 9.32032 1.30698C10.1822 1.30698 11.1133 0.819109 11.892 1.07344C12.6984 1.33473 13.1628 2.28504 13.8352 2.77522C14.5121 3.27005 15.5588 3.42033 16.051 4.10011Z" fill="white" stroke="#52B813" stroke-width="1.2" stroke-miterlimit="10"/>
    <path d="M13.7217 5.79381C14.042 6.2323 13.9272 6.91268 14.0979 7.44036C14.2626 7.94989 14.7612 8.42919 14.7612 8.99467C14.7612 9.55864 14.2626 10.0379 14.0979 10.5475C13.9272 11.0752 14.042 11.7555 13.7217 12.194C13.3984 12.6385 12.7154 12.7368 12.2727 13.0604C11.8331 13.3809 11.5294 14.0024 11.0021 14.1732C10.4929 14.3395 9.88399 14.0205 9.32043 14.0205C8.75535 14.0205 8.14796 14.3395 7.63878 14.1732C7.10996 14.0023 6.80779 13.3809 6.36811 13.0604C5.92391 12.7368 5.24097 12.6385 4.91764 12.194C4.59884 11.7555 4.71366 11.0751 4.54142 10.5475C4.37673 10.0379 3.87964 9.55863 3.87964 8.99467C3.87964 8.42919 4.37673 7.9499 4.54142 7.44036C4.71366 6.91267 4.59884 6.23228 4.91764 5.79381C5.24097 5.34929 5.92391 5.25101 6.36811 4.92745C6.80779 4.60691 7.10996 3.98548 7.63878 3.81463C8.14796 3.64831 8.75535 3.96734 9.32043 3.96734C9.88401 3.96734 10.4929 3.64831 11.0021 3.81463C11.5294 3.98549 11.8331 4.60691 12.2727 4.92745C12.7154 5.25102 13.3999 5.34929 13.7217 5.79381Z" fill="white" stroke="#52B813" stroke-width="1.2" stroke-miterlimit="10"/>
  </symbol>
  <symbol viewBox="0 0 15 16" fill="none" xmlns="http://www.w3.org/2000/svg" id="clock">
    <g clip-path="url(#clip0_263_446)">
    <path d="M0 8.47606C0 12.6181 3.35794 15.9761 7.50001 15.9761C11.6421 15.9761 15 12.6181 15 8.47606C15 4.334 11.6422 0.976074 7.50001 0.976074C3.35786 0.976074 0 4.33402 0 8.47606ZM13.831 8.47606C13.831 11.9668 10.9911 14.8069 7.50001 14.8069C4.00948 14.8069 1.16952 11.9668 1.16952 8.47606C1.16952 4.98533 4.00948 2.14529 7.50001 2.14529C10.9911 2.14529 13.831 4.98535 13.831 8.47606Z" fill="currentColor"/>
    <path d="M7.48399 5.23335C7.78843 5.23335 8.03523 4.98655 8.03523 4.6821C8.03523 4.37766 7.78843 4.13086 7.48399 4.13086C7.17954 4.13086 6.93274 4.37766 6.93274 4.6821C6.93274 4.98655 7.17954 5.23335 7.48399 5.23335Z" fill="currentColor"/>
    <path d="M8.03523 4.68213H6.93274V8.7354H8.03523V4.68213Z" fill="currentColor"/>
    <path d="M10.9861 9.28682C11.2905 9.28682 11.5373 9.04002 11.5373 8.73557C11.5373 8.43113 11.2905 8.18433 10.9861 8.18433C10.6816 8.18433 10.4348 8.43113 10.4348 8.73557C10.4348 9.04002 10.6816 9.28682 10.9861 9.28682Z" fill="currentColor"/>
    <path d="M10.986 9.28681V8.18433H6.93269V9.28681H10.986Z" fill="currentColor"/>
    </g>
    <defs>
    <clipPath id="clip0_263_446">
    <rect width="15" height="15" fill="white" transform="translate(0 0.976074)"/>
    </clipPath>
    </defs>
  </symbol>
  <symbol  viewBox="0 0 18 9" fill="none" xmlns="http://www.w3.org/2000/svg" id="chevron">
    <path d="M3.02052 0.929508L2.94983 0.867652L2.8559 0.867652L1.47047 0.867652L0.805112 0.867652L1.30585 1.3058L8.83526 7.89403L8.99988 8.03808L9.16451 7.89403L16.6939 1.3058L17.1947 0.867653L16.5293 0.867653L15.1439 0.867653L15.0499 0.867653L14.9792 0.929509L8.99988 6.16145L3.02052 0.929508Z" fill="currentColor" stroke-width="0.5"/>
  </symbol>
  <symbol xmlns="http://www.w3.org/2000/svg" xmlns:xlink="http://www.w3.org/1999/xlink" viewBox="0 0 33.384 33.384"  id="download">
    <defs>
      <clipPath id="clip-path">
        <rect id="Rectangle_1084" data-name="Rectangle 1084" />
      </clipPath>
    </defs>
    <g id="Group_700" data-name="Group 700" transform="translate(0 0)">
      <g id="Group_699" data-name="Group 699" transform="translate(0 0)" clip-path="url(#clip-path)">
        <path id="Path_538" data-name="Path 538" d="M16.692,33.384A16.692,16.692,0,1,1,33.384,16.692,16.711,16.711,0,0,1,16.692,33.384m0-32.2A15.507,15.507,0,1,0,32.2,16.692,15.524,15.524,0,0,0,16.692,1.185" transform="translate(0 0)"/>
        <rect id="Rectangle_1082" data-name="Rectangle 1082" width="1.185" height="15.474" transform="translate(16.005 5.291)" />
        <path id="Path_539" data-name="Path 539" d="M32.5,43.611l-6.269-6.269.838-.838L32.5,41.935l5.551-5.551.838.838Z" transform="translate(-15.865 -22.008)" />
        <rect id="Rectangle_1083" data-name="Rectangle 1083" width="10.548" height="1.185" transform="translate(11.418 24.694)" />
      </g>
    </g>
  </symbol>
  <symbol aria-hidden="true" data-icon="tag" xmlns="http://www.w3.org/2000/svg" viewBox="0 0 32 32" id="tag">
    <path fill="currentColor" d="M 16 5 L 15.6875 5.28125 L 4.28125 16.8125 L 3.59375 17.5 L 4.28125 18.21875 L 13.78125 27.71875 L 14.5 28.40625 L 15.1875 27.71875 L 26.71875 16.3125 L 27 16 L 27 5 Z M 16.84375 7 L 25 7 L 25 15.15625 L 14.5 25.59375 L 6.40625 17.5 Z M 22 9 C 21.449219 9 21 9.449219 21 10 C 21 10.550781 21.449219 11 22 11 C 22.550781 11 23 10.550781 23 10 C 23 9.449219 22.550781 9 22 9 Z"></path>
  </symbol>
  <symbol xmlns="http://www.w3.org/2000/svg" viewBox="0 0 32 32" id="calendar">
    <path d="M 9 4 L 9 5 L 5 5 L 5 27 L 27 27 L 27 5 L 23 5 L 23 4 L 21 4 L 21 5 L 11 5 L 11 4 Z M 7 7 L 9 7 L 9 8 L 11 8 L 11 7 L 21 7 L 21 8 L 23 8 L 23 7 L 25 7 L 25 9 L 7 9 Z M 7 11 L 25 11 L 25 25 L 7 25 Z M 13 13 L 13 15 L 15 15 L 15 13 Z M 17 13 L 17 15 L 19 15 L 19 13 Z M 21 13 L 21 15 L 23 15 L 23 13 Z M 9 17 L 9 19 L 11 19 L 11 17 Z M 13 17 L 13 19 L 15 19 L 15 17 Z M 17 17 L 17 19 L 19 19 L 19 17 Z M 21 17 L 21 19 L 23 19 L 23 17 Z M 9 21 L 9 23 L 11 23 L 11 21 Z M 13 21 L 13 23 L 15 23 L 15 21 Z M 17 21 L 17 23 L 19 23 L 19 21 Z"/>
  </symbol>
  <symbol xmlns="http://www.w3.org/2000/svg" viewBox="0 0 16 16" id="cross">
    <path d="M1 1L15 15" stroke="currentColor" stroke-width="2" stroke-miterlimit="10"/>
    <path d="M1 15L15 1" stroke="currentColor" stroke-width="2" stroke-miterlimit="10"/>
  </symbol>
  <symbol xmlns="http://www.w3.org/2000/svg" viewBox="0 0 07 12" id="caret">
    <g id="Group 7">
      <path id="Vector" d="M1 10.2666L5.02289 5.99994" stroke="currentColor" stroke-width="2" stroke-miterlimit="10" stroke-linecap="round"/>
      <path id="Vector_2" d="M1 1.73334L5.02289 6" stroke="currentColor" stroke-width="2" stroke-miterlimit="10" stroke-linecap="round"/>
    </g>
  </symbol>
  <symbol xmlns="http://www.w3.org/2000/svg" viewBox="0 0 17 8" id="arrows">
    <path d="M0.646447 3.64645C0.451184 3.84171 0.451184 4.15829 0.646447 4.35355L3.82843 7.53553C4.02369 7.7308 4.34027 7.7308 4.53553 7.53553C4.7308 7.34027 4.7308 7.02369 4.53553 6.82843L1.70711 4L4.53553 1.17157C4.7308 0.976311 4.7308 0.659729 4.53553 0.464466C4.34027 0.269204 4.02369 0.269204 3.82843 0.464466L0.646447 3.64645ZM16.3536 4.35355C16.5488 4.15829 16.5488 3.84171 16.3536 3.64645L13.1716 0.464467C12.9763 0.269205 12.6597 0.269205 12.4645 0.464467C12.2692 0.659729 12.2692 0.976312 12.4645 1.17157L15.2929 4L12.4645 6.82843C12.2692 7.02369 12.2692 7.34027 12.4645 7.53553C12.6597 7.7308 12.9763 7.7308 13.1716 7.53553L16.3536 4.35355ZM1 4.5L16 4.5L16 3.5L1 3.5L1 4.5Z" fill="currentColor"/>
  </symbol>
  <symbol viewBox="0 0 17 16" fill="none" xmlns="http://www.w3.org/2000/svg" id="tickshield">
    <g id="Group 5742">
    <path id="Vector" d="M8.48215 14.6425C5.15237 12.7154 2.87928 10.6577 1.85432 6.87862C1.20619 4.48846 1.035 2.5526 1 1.40715C1.85487 1.38412 3.12213 1.28436 4.79085 0.978948C6.97861 0.579393 8.31588 0.567627 8.46082 0.567627C8.64842 0.567627 9.98514 0.579393 12.1729 0.978948C13.8422 1.28437 15.1094 1.38413 15.9648 1.40715C15.9298 2.55209 15.7587 4.48795 15.11 6.87862C14.085 10.6577 11.8119 12.7154 8.48215 14.6425Z" stroke="#19388A" stroke-miterlimit="10"/>
    <g id="Group 520">
    <g id="Group">
    <path id="Vector_2" d="M7.30131 7.77113L7.40328 7.86565L7.50525 7.77113L11.3528 4.20477L11.8526 4.66803L7.40328 8.79215L5.56733 7.09039L6.06712 6.62713L7.30131 7.77113Z" fill="#19388A" stroke="#19388A" stroke-width="0.3"/>
    <path id="Vector_3" d="M7.30131 7.77113L7.40328 7.86565L7.50525 7.77113L11.3528 4.20477L11.8526 4.66803L7.40328 8.79215L5.56733 7.09039L6.06712 6.62713L7.30131 7.77113Z" fill="#19388A" stroke="#19388A" stroke-width="0.3"/>
    <path id="Vector_4" d="M5.34668 7.09039L7.40328 8.99667L12.0732 4.66803L11.3528 4.00024L7.40328 7.66112L6.06712 6.4226L5.34668 7.09039Z" fill="#19388A" stroke="#19388A" stroke-width="0.3" stroke-miterlimit="10"/>
    </g>
    </g>
    </g>
  </symbol>
  <symbol xmlns="http://www.w3.org/2000/svg" fill="none" viewBox="0 0 23 14" id="truck">
    <g>
      <path id="Vector" d="M8.26041 10.7442H14.3515C14.5267 10.7442 14.6947 10.6746 14.8186 10.5507C14.9425 10.4268 15.0121 10.2588 15.0121 10.0836L17.3125 1.66067C17.3125 1.57325 17.2951 1.4867 17.2615 1.40603C17.2278 1.32536 17.1784 1.25218 17.1162 1.19073C17.054 1.12929 16.9803 1.08079 16.8992 1.04806C16.8182 1.01532 16.7314 0.999006 16.644 1.00005H6.65998C6.48441 1.00004 6.31597 1.06952 6.19146 1.1933C6.06694 1.31708 5.99647 1.4851 5.99543 1.66067L4.0293 10.0836C4.0293 10.2588 4.0989 10.4268 4.22279 10.5507C4.34668 10.6746 4.51471 10.7442 4.68992 10.7442H5.54715" stroke="currentColor" stroke-width="1.17968"/>
      <path id="Vector_2" d="M16.1194 10.744H14.7549L16.721 3.94507H19.9533C20.002 3.94496 20.05 3.95546 20.0942 3.97583C20.1383 3.99621 20.1775 4.02597 20.2089 4.06304L21.6167 6.54036C21.6671 6.5981 21.6951 6.6721 21.6953 6.74877L20.3859 10.744H18.9703" stroke="currentColor" stroke-width="1.17968"/>
      <path id="Vector_3" d="M6.93592 12.6512C7.74163 12.6512 8.39479 11.9892 8.39479 11.1726C8.39479 10.3561 7.74163 9.69409 6.93592 9.69409C6.13021 9.69409 5.47705 10.3561 5.47705 11.1726C5.47705 11.9892 6.13021 12.6512 6.93592 12.6512Z" stroke="currentColor" stroke-width="1.17968"/>
      <path id="Vector_4" d="M17.5692 12.6512C18.3749 12.6512 19.0281 11.9892 19.0281 11.1726C19.0281 10.3561 18.3749 9.69409 17.5692 9.69409C16.7635 9.69409 16.1104 10.3561 16.1104 11.1726C16.1104 11.9892 16.7635 12.6512 17.5692 12.6512Z" stroke="currentColor" stroke-width="1.17968"/>
      <path id="Vector_5" d="M8.87855 2.9353H2.4375" stroke="currentColor" stroke-width="1.17968" stroke-linecap="round"/>
      <path id="Vector_6" d="M7.61018 4.99585H3.06055" stroke="currentColor" stroke-width="1.17968" stroke-linecap="round"/>
      <path id="Vector_7" d="M8.07021 7.31519H1" stroke="currentColor" stroke-width="1.17968" stroke-linecap="round"/>
    </g>
  </symbol>
  <symbol xmlns="http://www.w3.org/2000/svg" viewBox="0 0 20 15" id="house">
      <g id="Layer_1" clip-path="url(#clip0_150_179)">
      <path id="Vector" d="M6.5708 7.83057H13.4812" stroke="currentColor" stroke-width="1.17925" stroke-miterlimit="10" stroke-linecap="round"/>
      <path id="Vector_2" d="M6.5708 9.85938H13.4812" stroke="currentColor" stroke-width="1.17925" stroke-miterlimit="10" stroke-linecap="round"/>
      <path id="Vector_3" d="M6.5708 11.8982H13.4812" stroke="currentColor" stroke-width="1.17925" stroke-miterlimit="10" stroke-linecap="round"/>
      <path id="Vector_4" d="M6.5708 13.927H13.4812" stroke="currentColor" stroke-width="1.17925" stroke-miterlimit="10" stroke-linecap="round"/>
      <path id="Vector_5" d="M4.46143 14.4098V5.17627" stroke="currentColor" stroke-width="1.17925" stroke-miterlimit="10" stroke-linecap="round"/>
      <path id="Vector_6" d="M15.6968 14.4098V5.17627" stroke="currentColor" stroke-width="1.17925" stroke-miterlimit="10" stroke-linecap="round"/>
      <path id="Vector_7" d="M1.21875 7.34667L10.0631 0.5896" stroke="currentColor" stroke-width="1.17925" stroke-miterlimit="10" stroke-linecap="round"/>
      <path id="Vector_8" d="M18.9068 7.34667L10.0625 0.5896" stroke="currentColor" stroke-width="1.17925" stroke-miterlimit="10" stroke-linecap="round"/>
      </g>
      <defs>
      <clipPath id="clip0_150_179">
      <rect width="18.8679" height="15" fill="white" transform="translate(0.628906)"/>
      </clipPath>
      </defs>
  </symbol>
</svg>  